# xmcd
#
# Track frame offsets:
#	150
#	18234
#	37810
#	48864
#	63708
#	73748
#
# Disc length: 1273 seconds
#
# Revision: 0
# Processed by: cddbd v1.5.1PL0 Copyright (c) Steve Scherf et al.
# Submitted via: dBpowerAMP V4.0
#
DISCID=4904f706
DTITLE=BøGras - Ugras fra BøGras
DYEAR=1900
DGENRE=Bluegrass
TTITLE0=BøGras/Willin´
TTITLE1=BøGras/Wagon Wheel
TTITLE2=BøGras/Raleigh And Spencer
TTITLE3=BøGras/Cause My Sweet Love Ain´t Around
TTITLE4=BøGras/Walking Shoes
TTITLE5=BøGras/The Mountain
EXTD=Recorded in a barn, the summer of 03. BøGras is a bluegrass band from Bø i Telemark. Booking/info, please contact kenborrelangas@hotmail.com
EXTT0=
EXTT1=
EXTT2=
EXTT3=
EXTT4=
EXTT5=
PLAYORDER=
